# xmcd
#
# Track frame offsets:
#	150
#	28812
#	54178
#	61308
#	101993
#	127177
#	154424
#
# Disc length: 2511 seconds
#
# Revision: 2
# Processed by: cddbd v1.5.2PL0 Copyright (c) Steve Scherf et al.
# Submitted via: EZCDDA 4.3.2
#
DISCID=6209cd07
DTITLE=Menhir - Hildebrandslied
DYEAR=1900
DGENRE=
TTITLE0=Das Alte Lied Des Windes
TTITLE1=Des Kriegers Gesicht
TTITLE2=Intro
TTITLE3=Das Hildebrandslied - Teil I
TTITLE4=Das Hildebrandslied - Teil II
TTITLE5=Dein Ahn
TTITLE6=Weit In Der Ferne
EXTD=
EXTT0=
EXTT1=
EXTT2=
EXTT3=
EXTT4=
EXTT5=
EXTT6=
PLAYORDER=
